<mxfile host="Electron" agent="Mozilla/5.0 (X11; Linux x86_64) AppleWebKit/537.36 (KHTML, like Gecko) draw.io/26.1.1 Chrome/134.0.6998.179 Electron/35.1.4 Safari/537.36" version="26.1.1">
  <diagram name="Page-1" id="APLuhUqGwNmZBDzOp8WA">
    <mxGraphModel dx="631" dy="396" grid="1" gridSize="10" guides="1" tooltips="1" connect="1" arrows="1" fold="1" page="1" pageScale="1" pageWidth="850" pageHeight="1100" math="0" shadow="0">
      <root>
        <mxCell id="0" />
        <mxCell id="1" parent="0" />
        <mxCell id="JRUzdKGs-h2U20dKB7BS-1" value="サーバー" style="whiteSpace=wrap;html=1;aspect=fixed;" vertex="1" parent="1">
          <mxGeometry x="350" y="290" width="110" height="110" as="geometry" />
        </mxCell>
        <mxCell id="JRUzdKGs-h2U20dKB7BS-3" value="クライアント" style="shape=umlActor;verticalLabelPosition=bottom;verticalAlign=top;html=1;outlineConnect=0;" vertex="1" parent="1">
          <mxGeometry x="300" y="470" width="30" height="60" as="geometry" />
        </mxCell>
        <mxCell id="JRUzdKGs-h2U20dKB7BS-7" value="クライアント" style="shape=umlActor;verticalLabelPosition=bottom;verticalAlign=top;html=1;outlineConnect=0;" vertex="1" parent="1">
          <mxGeometry x="390" y="470" width="30" height="60" as="geometry" />
        </mxCell>
        <mxCell id="JRUzdKGs-h2U20dKB7BS-8" value="クライアント" style="shape=umlActor;verticalLabelPosition=bottom;verticalAlign=top;html=1;outlineConnect=0;" vertex="1" parent="1">
          <mxGeometry x="480" y="470" width="30" height="60" as="geometry" />
        </mxCell>
        <mxCell id="JRUzdKGs-h2U20dKB7BS-11" value="メッセージの送信" style="endArrow=classic;html=1;rounded=0;" edge="1" parent="1" target="JRUzdKGs-h2U20dKB7BS-1">
          <mxGeometry width="50" height="50" relative="1" as="geometry">
            <mxPoint x="320" y="460" as="sourcePoint" />
            <mxPoint x="420" y="410" as="targetPoint" />
          </mxGeometry>
        </mxCell>
        <mxCell id="JRUzdKGs-h2U20dKB7BS-12" value="" style="endArrow=classic;html=1;rounded=0;" edge="1" parent="1" source="JRUzdKGs-h2U20dKB7BS-1">
          <mxGeometry width="50" height="50" relative="1" as="geometry">
            <mxPoint x="340" y="484" as="sourcePoint" />
            <mxPoint x="405" y="460" as="targetPoint" />
          </mxGeometry>
        </mxCell>
        <mxCell id="JRUzdKGs-h2U20dKB7BS-14" value="&lt;span style=&quot;color: rgba(0, 0, 0, 0); font-family: monospace; font-size: 0px; text-align: start; background-color: rgb(251, 251, 251);&quot;&gt;%3CmxGraphModel%3E%3Croot%3E%3CmxCell%20id%3D%220%22%2F%3E%3CmxCell%20id%3D%221%22%20parent%3D%220%22%2F%3E%3CmxCell%20id%3D%222%22%20value%3D%22%E3%83%A1%E3%83%83%E3%82%BB%E3%83%BC%E3%82%B8%22%20style%3D%22endArrow%3Dclassic%3Bhtml%3D1%3Brounded%3D0%3B%22%20edge%3D%221%22%20parent%3D%221%22%3E%3CmxGeometry%20width%3D%2250%22%20height%3D%2250%22%20relative%3D%221%22%20as%3D%22geometry%22%3E%3CmxPoint%20x%3D%22320%22%20y%3D%22460%22%20as%3D%22sourcePoint%22%2F%3E%3CmxPoint%20x%3D%22364%22%20y%3D%22400%22%20as%3D%22targetPoint%22%2F%3E%3C%2FmxGeometry%3E%3C%2FmxCell%3E%3C%2Froot%3E%3C%2FmxGraphModel%&lt;/span&gt;" style="edgeLabel;html=1;align=center;verticalAlign=middle;resizable=0;points=[];" vertex="1" connectable="0" parent="JRUzdKGs-h2U20dKB7BS-12">
          <mxGeometry x="0.06" y="2" relative="1" as="geometry">
            <mxPoint as="offset" />
          </mxGeometry>
        </mxCell>
        <mxCell id="JRUzdKGs-h2U20dKB7BS-13" value="" style="endArrow=classic;html=1;rounded=0;" edge="1" parent="1" source="JRUzdKGs-h2U20dKB7BS-1">
          <mxGeometry width="50" height="50" relative="1" as="geometry">
            <mxPoint x="415" y="410" as="sourcePoint" />
            <mxPoint x="490" y="460" as="targetPoint" />
          </mxGeometry>
        </mxCell>
      </root>
    </mxGraphModel>
  </diagram>
</mxfile>
